<svg width="512" height="512" xmlns="http://www.w3.org/2000/svg">

 <g>
  <title>background</title>
  <rect fill="none" id="canvas_background" height="402" width="582" y="-1" x="-1"/>
 </g>
 <g>
  <title>Layer 1</title>
  <path id="svg_1" d="m504.33,449c-1.77,-6.8 -44.73,-167.52 -164.21,-232.91c-44.65,-24.43 -96.2,-41.45 -146,-57.91c-79.12,-26.1 -153.83,-50.76 -168.12,-98.53a6.22,6.22 0 0 0 -12,0.24c-0.9,3.5 -21.53,86.38 15.65,137.94c16.8,23.29 42.66,36.33 76.85,38.75c2.88,0.2 5.61,0.42 8.44,0.63c4.15,15.16 22.14,60.63 89.61,66c12.25,1 24.17,2.25 35.9,3.65c4.92,14.16 26.84,57.6 114,73.07c62.78,11.14 114,31.18 131.21,51.25c4.39,12.68 6.53,20.62 6.63,21a6.2,6.2 0 0 0 6,4.65a6.56,6.56 0 0 0 1.57,-0.2a6.23,6.23 0 0 0 4.47,-7.63zm-464.59,-258.42c-23.74,-32.85 -20.99,-82.06 -17.19,-108.75c26.07,41.43 92.34,63.31 167.62,88.16c49.32,16.29 100.33,33.13 144,57c31.46,17.21 57.53,41.8 78.8,68.44c-40.97,-26.05 -107.39,-57.21 -305.62,-71.25c-30.35,-2.18 -53.07,-13.45 -67.61,-33.6zm88.36,47.64c202.38,16.42 254.36,51.46 292.64,77.28c4.36,2.95 8.58,5.8 12.84,8.51c5.09,7.77 9.81,15.55 14.18,23.22c-38.37,-19.78 -115.69,-41.42 -201.19,-52.15c-0.14,0 -0.29,0 -0.44,-0.06c-13.39,-1.67 -26.94,-3.13 -40.61,-4.22c-55.03,-4.37 -72.31,-37.27 -77.42,-52.58zm228.53,129.46c-70.83,-12.57 -94.51,-43.79 -102,-59.11c110.24,14.87 192.77,46.27 205.61,62c6.75,13.55 12.29,26.25 16.81,37.5c-25.95,-16.58 -69.11,-31.29 -120.42,-40.39z"/>
 </g>
</svg>